<svg width="120" height="120" viewBox="0 0 120 120" fill="none" xmlns="http://www.w3.org/2000/svg">
  <rect width="120" height="120" rx="60" fill="#F7EFE6"/>
  <circle cx="60" cy="45" r="23" fill="#F0C7A8"/>
  <path d="M28 118C30 92 46 77 60 77C74 77 91 92 92 118H28Z" fill="#C78F75"/>
  <path d="M35 44C35 26 48 18 61 18C74 18 85 28 85 43C85 58 74 64 61 64C48 64 35 58 35 44Z" fill="#4C3428"/>
  <path d="M34 44C39 30 51 25 64 25C75 25 84 31 88 42" stroke="#4C3428" stroke-width="8" stroke-linecap="round"/>
</svg>
