<svg width="1200" height="900" viewBox="0 0 1200 900" fill="none" xmlns="http://www.w3.org/2000/svg">
  <rect width="1200" height="900" fill="#D1B79C"/>
  <rect x="0" y="0" width="1200" height="900" fill="url(#fabric)" fill-opacity="0.55"/>
  <circle cx="600" cy="450" r="210" fill="#F5F0E7"/>
  <circle cx="600" cy="450" r="146" fill="#D1B79C"/>
  <circle cx="600" cy="450" r="204" stroke="#E8DED1" stroke-width="18"/>
  <g stroke-linecap="round" stroke-width="22">
    <path d="M600 210C653 210 690 226 735 250" stroke="#FF6F2C"/>
    <path d="M735 250C783 276 821 311 846 352" stroke="#FFBF35"/>
    <path d="M846 352C869 392 882 435 882 478" stroke="#F6D7C1"/>
    <path d="M882 478C882 521 868 564 844 604" stroke="#E88656"/>
    <path d="M844 604C818 647 784 682 736 707" stroke="#CF3F27"/>
    <path d="M736 707C687 733 646 742 598 742" stroke="#F39AA9"/>
    <path d="M598 742C548 742 504 735 458 716" stroke="#8C2C3B"/>
    <path d="M458 716C408 696 368 669 332 632" stroke="#4B243A"/>
    <path d="M332 632C298 596 275 557 262 509" stroke="#1E2949"/>
    <path d="M262 509C251 467 249 426 256 388" stroke="#2D5A9E"/>
    <path d="M256 388C266 340 286 304 318 268" stroke="#2AB0E2"/>
    <path d="M318 268C350 234 391 211 438 194" stroke="#80D5E6"/>
    <path d="M438 194C487 177 533 170 586 171" stroke="#1D6C73"/>
  </g>
  <defs>
    <pattern id="fabric" patternUnits="userSpaceOnUse" width="24" height="24">
      <path d="M0 0H24V24H0V0Z" fill="#CEB59B"/>
      <path d="M0 12H24M12 0V24" stroke="#DCC8B3" stroke-opacity="0.35" />
    </pattern>
  </defs>
</svg>
