<svg width="1200" height="900" viewBox="0 0 1200 900" fill="none" xmlns="http://www.w3.org/2000/svg">
  <rect width="1200" height="900" fill="#1E221F"/>
  <rect x="0" y="0" width="1200" height="900" fill="url(#linen)" fill-opacity="0.65"/>
  <path d="M0 0H1200L720 420H0V0Z" fill="url(#light)" fill-opacity="0.82"/>
  <path d="M452 776C499 699 523 625 527 555" stroke="#37573A" stroke-width="10" stroke-linecap="round"/>
  <path d="M611 785C650 676 659 582 640 494" stroke="#365D39" stroke-width="10" stroke-linecap="round"/>
  <path d="M735 785C761 675 796 592 845 534" stroke="#395D3A" stroke-width="10" stroke-linecap="round"/>
  <g>
    <circle cx="536" cy="503" r="46" fill="#EFE8E1"/>
    <circle cx="536" cy="503" r="14" fill="#D9A24B"/>
    <path d="M536 457V549M490 503H582M503 470L569 536M569 470L503 536" stroke="#CFC6BA" stroke-width="7" stroke-linecap="round"/>
  </g>
  <g>
    <circle cx="633" cy="407" r="38" fill="#F2ECE5"/>
    <circle cx="633" cy="407" r="12" fill="#D29949"/>
    <path d="M633 369V445M595 407H671M607 381L659 433M659 381L607 433" stroke="#D9D0C4" stroke-width="6" stroke-linecap="round"/>
  </g>
  <g>
    <circle cx="841" cy="463" r="30" fill="#A2493C"/>
    <circle cx="841" cy="463" r="10" fill="#E4B588"/>
    <path d="M841 433V493M811 463H871M819 441L863 485M863 441L819 485" stroke="#BF695C" stroke-width="5.5" stroke-linecap="round"/>
  </g>
  <defs>
    <pattern id="linen" patternUnits="userSpaceOnUse" width="22" height="22">
      <path d="M0 0H22V22H0V0Z" fill="#BCA98B"/>
      <path d="M0 11H22M11 0V22" stroke="#E1D4C1" stroke-opacity="0.2"/>
    </pattern>
    <linearGradient id="light" x1="270" y1="96" x2="603" y2="423" gradientUnits="userSpaceOnUse">
      <stop stop-color="#F7EDDA"/>
      <stop offset="1" stop-color="#F7EDDA" stop-opacity="0"/>
    </linearGradient>
  </defs>
</svg>
